<?xml version="1.0" standalone="no"?>
<!DOCTYPE svg PUBLIC "-//W3C//DTD SVG 1.1//EN" "http://www.w3.org/Graphics/SVG/1.1/DTD/svg11.dtd" >
<svg xmlns="http://www.w3.org/2000/svg">
<metadata>
This is a custom SVG webfont generated by Font Squirrel.
Copyright   : Generated by Fontographer 35
</metadata>
<defs>
<font id="KelmscottRegular" horiz-adv-x="516" >
<font-face units-per-em="2048" ascent="1638" descent="-410" />
<missing-glyph horiz-adv-x="1024" />
<glyph unicode=" "  horiz-adv-x="1024" />
<glyph unicode="&#x09;" horiz-adv-x="1024" />
<glyph unicode="&#xa0;" horiz-adv-x="1024" />
<glyph unicode="!" d="M92 176q45 59 96.5 118.5t81.5 59.5q41 0 100.5 -76.5t59.5 -119.5q0 -14 -51 -78t-96 -100q-63 55 -127 114t-64 82zM98 356l27 422l22 266l-12 209l-24 283l295 123l-25 -369q0 -86 -12.5 -181t-24.5 -175v-246l-25 -123l-86 -49l-73 -98z" />
<glyph unicode="&#x22;" horiz-adv-x="798" d="M23 1419q0 14 43 115.5t71 185.5l23 19q27 -18 34 -31.5t11 -21.5q41 -45 57.5 -63.5t16.5 -35.5q0 -14 -177 -287q-12 8 -23 25.5t-33.5 44t-22.5 49.5zM367 1407q0 14 43 115.5t71 185.5l23 18q27 -18 34 -31.5t11 -21.5q41 -45 57.5 -63.5t16.5 -34.5q0 -14 -177 -287 q-12 8 -23 25.5t-33.5 44t-22.5 49.5z" />
<glyph unicode="&#x26;" horiz-adv-x="1654" d="M0 565q0 109 134 251t140 151q-90 43 -156.5 141t-66.5 217q0 190 145.5 259t323.5 69q53 0 122 -8.5t113 -72t44 -233.5q0 -66 -61.5 -117t-151.5 -51q-18 2 -29 3q-74 8 -116 59t-42 127q2 16 2 24q0 25 19.5 55.5t38.5 59.5l51 -176q25 -18 46.5 -35.5t25.5 -19.5 q33 -2 57.5 22.5t24.5 40.5q0 39 7 72t7 35q0 10 -8 33.5t-24.5 41t-42 33t-42 18.5t-47.5 3h-37q-16 2 -26 2q-125 -39 -165 -83t-40 -157q-6 -72 40 -172t119.5 -108.5t121.5 -17.5t71 -15l-236 -135q-76 -41 -122.5 -113t-46.5 -199q0 -152 78.5 -275.5t168.5 -132.5 t108.5 -10t31.5 -1q205 0 330.5 128t125.5 343q0 133 -32.5 182t-110.5 49q-92 0 -144.5 -52t-52.5 -120q-4 -37 37 -83t74 -46q35 0 70 18q43 27 63 39l-4 -49q-55 -102 -164 -102q-49 0 -91 76.5t-42 154.5q0 127 69.5 205t172.5 78q16 0 89.5 -8.5t180 -152.5t145.5 -144 q70 0 138.5 100t68.5 256q0 168 -68.5 295t-134 134t-90.5 7q-57 0 -90 -23.5t-33 -78.5q-4 -29 26 -70t58.5 -64.5t61.5 -23.5q16 0 23.5 20.5t7.5 59.5q0 20 -1 40.5t-1 41.5l67 -100q8 -16 16.5 -38t8.5 -51q0 -35 -18.5 -54t-67.5 -19q-16 0 -56.5 5t-131.5 76.5 t-91 139.5q0 141 54.5 195.5t127.5 54.5q31 0 51.5 -5t30.5 -10q207 -23 275.5 -157.5t68.5 -384.5q0 -129 -109.5 -315.5t-227.5 -172.5q-47 4 -80 33q-35 37 -50 53q-100 -342 -214.5 -472t-344.5 -130q-70 0 -224 16.5t-250.5 169t-96.5 371.5z" />
<glyph unicode="'" d="M35 1419q0 14 43 115.5t72 185.5l22 19q27 -18 34 -31.5t11 -21.5q41 -45 57.5 -63.5t16.5 -35.5q0 -14 -176 -287q-12 8 -23.5 25.5t-34 44t-22.5 49.5z" />
<glyph unicode="(" horiz-adv-x="638" d="M-23 764q0 -256 122 -460t397 -404q-37 127 -146.5 388t-109.5 478q0 287 52 483.5t204 452.5q-256 -186 -371 -368.5t-131.5 -346.5t-16.5 -223z" />
<glyph unicode=")" horiz-adv-x="638" d="M45 -117q37 127 146.5 388t109.5 479q0 287 -52 483.5t-204 452.5q256 -186 370.5 -368.5t141.5 -443.5q6 -68 6 -126q0 -256 -122 -460t-396 -405z" />
<glyph unicode="," d="M35 -80q0 14 43 115.5t72 185.5l22 19q27 -18 34 -31.5t11 -22.5q41 -45 57.5 -63.5t16.5 -34.5q0 -14 -176 -287q-12 8 -23.5 25.5t-34 44t-22.5 49.5z" />
<glyph unicode="-" horiz-adv-x="2048" d="M0 672l115 229l1622 33l-82 -229z" />
<glyph unicode="." horiz-adv-x="671" d="M33 262l229 -262l197 262l-180 230z" />
<glyph unicode="/" horiz-adv-x="1191" d="M37 170q27 45 129 121t145 76q29 0 46.5 -58.5t29.5 -120.5q-14 -25 -110.5 -83t-194.5 -113q-20 35 -36.5 99.5t-8.5 78.5zM283 575q0 20 6 30.5t88 70t192 139.5q-27 104 -37 148.5t-2 58.5q20 35 115.5 98.5t177.5 102.5q35 -84 39 -133.5t6 -67.5q-12 -20 -71.5 -59 t-221.5 -138q31 -74 43.5 -122t12.5 -74q0 -8 -1 -13.5t-5 -13.5t-133.5 -101t-139.5 -93q-23 0 -46 59t-23 108zM768 1419q0 16 4 23q80 59 164 118.5t98 59.5q49 0 60.5 -58.5t15.5 -119.5q-10 -16 -133 -98t-150 -82q-12 0 -35.5 59t-23.5 98z" />
<glyph unicode="0" horiz-adv-x="1097" d="M8 797q0 248 120 415.5t255 250.5t164 83q51 0 165.5 -99t208 -292.5t93.5 -464.5q0 -250 -109.5 -393t-314.5 -231q-27 -23 -65 -51.5t-60 -28.5q-143 0 -300 226.5t-157 584.5zM141 903q0 -147 152.5 -342.5t333.5 -195.5q106 0 174.5 49t68.5 188q0 160 -150.5 360.5 t-336.5 200.5q-104 0 -173 -74.5t-69 -185.5z" />
<glyph unicode="1" horiz-adv-x="557" d="M-33 1266l424 266h12v-1176l33 -370h-409q53 186 67.5 301.5t14.5 330.5q0 358 -43 482q-62 96 -99 166z" />
<glyph unicode="2" horiz-adv-x="1228" d="M-18 -6v67q59 45 232 221.5t311.5 359.5t138.5 286q0 111 -81 155.5t-194 44.5q-119 0 -254 -67v41q43 63 132 248.5t151 185.5q201 0 374 -131t173 -344q0 -207 -207 -418q-166 -154 -332 -305h70l612 63h35q-76 -131 -190.5 -269t-161.5 -138h-809z" />
<glyph unicode="3" horiz-adv-x="1228" d="M0 387v37h55q76 -70 186.5 -126t215.5 -56q119 0 217 89t98 187q0 139 -92 175t-250 36h-35v135q115 0 228.5 41t113.5 142q0 45 -68.5 101t-201.5 56q-35 0 -107.5 -15t-126.5 -38v29q68 125 105 260t119 135q201 0 369.5 -154.5t168.5 -279.5q0 -66 -62.5 -151 t-78.5 -118q51 -49 136 -107t100.5 -99t27.5 -72t12 -55q0 -55 -18 -98.5t-29 -67.5q-53 -154 -183 -267.5t-337 -113.5q-203 0 -363.5 134t-199.5 261z" />
<glyph unicode="4" horiz-adv-x="1253" d="M0 467l971 1036q8 -4 24 -4q8 0 33 4v-766h137l-10 -159l-127 -35q0 -227 6 -347t15 -196h-295l-4 528zM332 664l418 36l24 394z" />
<glyph unicode="5" horiz-adv-x="1261" d="M16 315q16 23 106.5 94.5t129.5 88.5l446 -291q90 31 135.5 110.5t45.5 137.5q0 111 -186.5 214t-547.5 103v39q16 35 69.5 194.5t78 238.5t55.5 172t68 93h40q15 0 23 4q0 2 -40 9.5t-44 11.5q66 -4 223.5 -9t323.5 -5h39q150 0 190 12v-23q-37 -170 -73.5 -222 t-85.5 -52q-33 0 -66 2h-522q-20 -25 -48 -82t-28 -92q0 -10 44 -19.5t112 -9.5q229 0 439 -135t210 -330q0 -131 -138 -263t-307 -235.5t-186 -103.5z" />
<glyph unicode="6" horiz-adv-x="1146" d="M-37 625v204q0 205 168 376t379 281.5t278 110.5q10 0 22.5 -16t23.5 -29v-26q-160 -55 -301.5 -194.5t-256.5 -383.5v-47q49 20 195.5 124.5t161.5 104.5q147 0 292.5 -160.5t145.5 -344.5q0 -147 -71.5 -255t-208 -208.5t-209 -143.5t-99.5 -43q-59 31 -138 81 t-162 142.5t-151.5 207.5t-68.5 219zM287 715q0 -178 156.5 -344t213.5 -166q55 0 103.5 95t48.5 177q0 160 -94 272.5t-221 112.5q-82 0 -144.5 -40.5t-62.5 -106.5z" />
<glyph unicode="7" horiz-adv-x="1261" d="M6 1120v66q51 90 75.5 231.5t227.5 141.5h717q35 12 64 12q55 0 55 -39q-37 -74 -116 -226.5t-146.5 -281.5t-194.5 -347t-232.5 -425t-146.5 -236h-280v29l827 1235q-66 12 -102 12q-20 0 -133 -6t-150 -6q-156 0 -266 -49q-84 -55 -166 -111h-33z" />
<glyph unicode="8" horiz-adv-x="1212" d="M4 428q0 82 112.5 169t223.5 171q-39 43 -172 144.5t-133 177.5q0 61 62.5 115.5t148.5 125t174 138t135 67.5q45 0 140.5 -69.5t169 -127t149.5 -118.5q66 -72 65 -131q0 -55 -82 -134l-184 -159q117 -90 210 -177.5t93 -170.5q0 -55 -52 -118t-154.5 -138.5 t-203 -148.5t-151.5 -73q-47 0 -235.5 134.5t-252 190.5t-63.5 132zM291 522q0 -29 54 -81t122 -95l217 -145q14 0 80.5 56t66.5 89q0 39 -63 93.5t-106.5 84t-126 96t-89.5 66.5q-27 0 -91 -69.5t-64 -94.5zM317 1180q0 -16 163 -143.5t225 -168.5q45 41 76.5 85t31.5 53 q0 31 -70.5 95t-109.5 88.5t-100.5 81t-86.5 56.5t-77 -65.5t-52 -81.5z" />
<glyph unicode="9" horiz-adv-x="1064" d="M-23 926q0 164 93.5 295t193.5 202q72 57 148.5 113.5t105.5 56.5q18 0 137 -95t222.5 -266t103.5 -407q0 -98 -16.5 -187t-79.5 -206q-55 -68 -101.5 -119t-81 -79.5t-211 -132t-247.5 -103.5q-39 0 -39 55q74 47 170 117t172 174.5t100.5 174t50.5 151.5h-22 q-33 -12 -165 -119t-159 -107q-16 0 -111.5 54.5t-179.5 162t-84 265.5zM215 1096q0 -160 90 -270.5t184 -110.5q51 0 130 43t79 57q0 188 -143 365.5t-193 177.5q-49 0 -98 -103.5t-49 -158.5z" />
<glyph unicode=":" d="M92 176q45 59 96.5 118.5t81.5 59.5q41 0 100.5 -76.5t59.5 -119.5q0 -14 -51 -78t-96 -100q-63 55 -127 114t-64 82zM92 594q29 61 69 127.5t109 81.5q55 -70 107.5 -135.5t52.5 -73.5q0 -29 -74.5 -114t-103.5 -85q-8 0 -84 93.5t-76 105.5z" />
<glyph unicode=";" d="M31 594q14 35 48 78t130 141q102 -133 131 -172t29 -47q0 -29 -75 -114t-104 -85q-8 0 -83.5 93.5t-75.5 105.5zM35 -80q0 14 43 115.5t72 185.5l22 19q27 -18 34 -31.5t11 -22.5q41 -45 57.5 -63.5t16.5 -34.5q0 -14 -176 -287q-12 8 -23.5 25.5t-34 44t-22.5 49.5z" />
<glyph unicode="?" horiz-adv-x="1081" d="M-39 1311h51q68 63 167.5 113.5t193.5 50.5q109 0 196.5 -80t87.5 -168q0 -115 -71.5 -218.5t-141.5 -205.5l-26 -422l61 61l74 99l86 49l25 123q10 45 24 98t43 96q80 68 123 107t68 104q31 78 30 154q0 47 -16 84q-47 141 -164 242.5t-303 101.5q-182 0 -327.5 -121 t-180.5 -236v-32zM350 176q45 59 96.5 118.5t81.5 59.5q41 0 100.5 -76.5t59.5 -119.5q0 -14 -51 -78t-96 -100q-63 55 -127 114t-64 82z" />
<glyph unicode="A" horiz-adv-x="1589" d="M6 2q0 18 76 115.5t99.5 200t42 249t57 483t49.5 363.5v117h-283v57q16 0 28.5 6t22.5 17l107 8h205h1040v-57l-30 -30q-15 -15 -35.5 -43t-35 -68t-14.5 -101v-795q0 -279 41 -391q59 -96 90 -149h-833v55q6 0 43 -2t65 -2q178 0 253 53t75 143v449h-739 q-8 -98 -25.5 -257t-73 -329t-147.5 -170q-39 0 -58.5 24.5t-19.5 53.5zM387 930h664v289q-20 43 -21 69q2 23 2 37q0 12 -5 32.5t-15 45.5l-58 104h-510q-10 -109 -22 -245t-35 -181v-151z" />
<glyph unicode="B" horiz-adv-x="1540" d="M14 1327v55q268 63 462 155.5t355 92.5q172 0 325 -93t153 -251q0 -100 -84 -169.5t-164 -133.5q152 -117 305 -233q115 -100 115 -244q0 -66 -91.5 -202t-248 -242.5t-346.5 -106.5q-131 31 -271.5 53.5t-224.5 22.5q-94 0 -160 -25q-70 -35 -106 -51v57 q16 37 74.5 131.5t58.5 173.5v721q0 106 -34 178t-118 111zM442 1198q0 -14 1 -25.5t8 -37.5v-342q20 6 28 7t13 -7q43 39 287.5 184t244.5 309q0 100 -68.5 165t-160.5 65q-139 0 -246 -94.5t-107 -223.5zM451 584q0 -195 85 -345.5t277 -150.5q86 0 205 79t119 206 q0 139 -125 241.5t-254 178.5q-55 0 -181 -90t-126 -119z" />
<glyph unicode="C" horiz-adv-x="1585" d="M-8 778q0 352 248.5 605t590.5 253q190 0 344 -74.5t246 -172.5q-47 -43 -132 -114t-126 -97q-59 141 -155.5 224t-231.5 83q-43 0 -153.5 -45t-217 -189.5t-106.5 -412.5q0 -264 152.5 -457t437.5 -193q279 0 407.5 124t202.5 124q-27 -59 -53 -117 q-82 -139 -236.5 -239t-414.5 -100q-328 0 -565.5 241.5t-237.5 556.5z" />
<glyph unicode="D" horiz-adv-x="1597" d="M14 1352v55q256 86 448.5 167t272.5 81q174 0 358.5 -154.5t313.5 -361.5t129 -322q0 -231 -282.5 -534t-536.5 -303q-57 0 -171 37.5t-229 37.5q-45 0 -134 -27.5t-113 -29.5q0 25 57 164t57 313v684q0 10 -38 79t-132 114zM469 455q0 -119 64.5 -221.5t201.5 -102.5 q197 0 319 253t122 433q0 274 -155 489.5t-304 215.5q-82 0 -165 -81t-83 -186v-800z" />
<glyph unicode="E" horiz-adv-x="1671" d="M16 784q0 172 77 319.5t209 270.5t283.5 195.5t250.5 72.5q154 0 299 -59q135 -68 270 -133q23 14 52.5 29.5t80.5 29.5v-77q-35 -33 -166 -130.5t-166 -117.5q-90 193 -180 251t-176 58q-27 -2 -35 -2q-207 0 -279.5 -119t-156.5 -340v-133l227 27l336 16l270 8l140 8 l204 9q-37 -41 -78.5 -86t-64.5 -68q-61 -68 -121 -133q-70 -68 -153 -68l-686 97h-74v-134q68 -219 179.5 -348t313.5 -129q106 0 243.5 97.5t137.5 304.5h308v-58q-154 -276 -330 -376.5t-395 -100.5q-313 0 -566.5 232.5t-253.5 586.5z" />
<glyph unicode="F" horiz-adv-x="1327" d="M-18 676q0 27 2 67.5t2 57.5v24q0 10 -4 43h211v74q-14 39 -36 124t-48 165l776 422q127 -70 208 -155t216 -247q-29 -20 -96.5 -57t-221.5 -115q-53 121 -119.5 195t-173.5 74q-82 0 -125 -55.5t-84 -157.5v-248h631q-14 -33 -28.5 -70t-14.5 -123q-8 0 -161.5 -9 t-223.5 -9q-84 0 -119.5 3t-83.5 15q0 -250 -21.5 -451.5t-119.5 -413.5t-305 -325v41q68 213 109 352.5t41 223.5v555h-211z" />
<glyph unicode="G" horiz-adv-x="1769" d="M6 780q0 154 103.5 355.5t322.5 356.5t535 155q174 0 359 -54.5t333 -140.5q-31 -59 -77 -134t-126 -155q-88 102 -174 207q-154 139 -375 139q-272 0 -385.5 -196.5t-113.5 -476.5q0 -393 115.5 -561.5t365.5 -168.5q221 0 322.5 156t101.5 365q0 135 -75 240.5 t-175 105.5q-41 0 -107.5 -49.5t-66.5 -106.5q0 -25 41 -67.5t92 -75.5q-96 -150 -133 -196t-58 -46q-72 0 -141 118t-69 191q0 154 125.5 259.5t334.5 105.5q240 0 418 -162t178 -358q0 -197 -216 -406t-572 -209q-242 0 -442.5 143.5t-320.5 339t-120 326.5z" />
<glyph unicode="H" horiz-adv-x="1540" d="M-27 -10q74 92 106 132t32 99v1192q0 41 -27 79t-88 73v61h1180v-80h-363h-71q-34 0 -64 2q-113 0 -168 -23.5t-115 -111.5v-270q82 12 276.5 131t237.5 119q147 0 340 -274.5t193 -493.5q0 -180 -140.5 -401.5t-316.5 -311.5v78q68 96 135 194q74 125 74 305 q0 248 -178 432.5t-391 184.5q-74 0 -108 -14.5t-122 -63.5v-731l56 -307h-478z" />
<glyph unicode="I" horiz-adv-x="1163" d="M8 1589v97h58l61 -31q57 -29 131 -29h674v-76q-137 0 -202.5 -23.5t-65.5 -109.5v-1042q0 -295 140 -307.5t173 -21.5t72 -17q18 -8 18 -58q0 -29 -27.5 -52t-50.5 -23q-39 0 -67.5 34.5t-49.5 61.5h-806l8 98l245 8l41 25q4 6 8.5 18.5t4.5 42.5v1155q0 178 -161 201.5 t-204 48.5z" />
<glyph unicode="J" horiz-adv-x="1245" d="M-8 1253q27 172 163 282t228 110q43 0 212 -69t234 -69q90 0 187.5 47.5t146.5 53.5q-51 -231 -67.5 -313.5t-16.5 -120.5q10 -53 17.5 -132t7.5 -196v-627q0 -240 -160 -396.5t-389 -256.5q-117 -43 -231 -86h-58v59q23 25 200 119t279.5 246.5t102.5 453.5 q0 207 -72 394q-80 162 -160 325q121 109 230.5 208t138.5 165q-80 -49 -205 -103.5t-221 -54.5q-35 0 -155.5 39t-159.5 39q-66 0 -111 -29.5t-84 -87.5h-57z" />
<glyph unicode="K" horiz-adv-x="1622" d="M16 1610l9 49h1458v-49q-31 -14 -57.5 -26.5t-101.5 -55.5t-206 -143.5t-287 -256.5q244 -203 364 -362.5t165 -275t143 -429.5l21 -63h-475l16 20q49 80 63.5 114t14.5 99q0 135 -201 398.5t-367 263.5q-31 -18 -68.5 -41t-70.5 -55v-547l60 -254h-451v59q57 39 77.5 75 t20.5 60v1231q0 66 -40 106l-56 56q-17 17 -31 27zM459 973q162 82 296 240.5t134 189.5q0 18 -1 40.5t-12.5 44t-26.5 35t-41 28t-40 17.5t-52 9t-63 6q-18 0 -54 -7t-52.5 -13.5t-41 -29t-35.5 -55t-11 -75.5v-430z" />
<glyph unicode="L" horiz-adv-x="1425" d="M25 25q0 10 2 14t4 6q0 37 67.5 131t67.5 223v607q0 119 -37 184q-41 55 -80 110q0 27 174 119t374 173t277 81q209 0 272.5 -138t100.5 -222q-51 -35 -123.5 -64.5t-160.5 -64.5q-63 150 -124 232.5t-163 82.5q-133 0 -177 -89t-44 -267q0 -53 6 -178t6 -197 q0 -176 -28.5 -307t-114.5 -240q76 0 131 24.5t96 34t84 14.5t74 5q111 0 169 -25.5t95 -52.5q72 37 151.5 86t141.5 111h57v-60q0 -141 -122 -256.5t-327 -115.5q-113 0 -139 4t-96 35l-164 8l-147 -8l-115 -17q-10 -10 -12 -17t-11 -7q-18 0 -37.5 1t-41.5 1h-23 q-37 0 -50 11.5t-13 27.5z" />
<glyph unicode="M" horiz-adv-x="1916" d="M0 1638h369q29 -4 57.5 -7t56 -17.5t145 -274.5t184.5 -395t130 -184l334 702q-37 47 -52.5 59.5t-66.5 37.5v57h625v-57q-59 -43 -89 -74t-30 -82v-1167q0 -61 38 -118t120 -77l-11 -57l-593 -2v59q84 43 118.5 95t34.5 138v1012h-37l-469 -1032h-37l-508 1032h-36 v-1091q-12 -78 -34 -212.5t-77 -290t-143 -216.5v59q70 170 102.5 370.5t32.5 387.5v895q0 231 -53 291q-33 29 -53.5 48t-32 50.5t-25.5 60.5z" />
<glyph unicode="N" horiz-adv-x="1736" d="M0 1542q63 20 157.5 44t211.5 52l958 -1073l39 -20v801q0 174 -86 196q-45 8 -90 19v59h448v-59q-43 -8 -84 -25l-51 -33v-1564h-117q-12 123 -177 304t-312 341q-348 428 -424 519t-162 126v-1055q0 -258 -55 -418q-78 -170 -121 -284h-59v57q16 31 67.5 237.5 t51.5 309.5v842q0 225 -12.5 338.5t-36 165t-77 78t-69.5 42.5z" />
<glyph unicode="O" horiz-adv-x="1622" d="M-2 834q0 256 259 540.5t525 284.5q233 0 489.5 -273.5t256.5 -627.5q0 -201 -152.5 -379t-345 -293t-268.5 -115q-84 0 -270.5 98.5t-340 293.5t-153.5 471zM213 991q0 -242 216 -473t511 -231q160 0 266.5 104.5t106.5 226.5q0 217 -218 472.5t-491 255.5 q-160 0 -275.5 -87.5t-115.5 -267.5z" />
<glyph unicode="P" horiz-adv-x="1884" d="M18 1313v57q264 106 459 169t301.5 85.5t141.5 22.5q264 0 461.5 -153t301 -355.5t103.5 -335.5q0 -231 -142.5 -422t-340 -306.5t-324.5 -115.5q-213 0 -334 133l-156 201v-590q0 -74 40 -116t98 -62v-57h-434v1372q0 268 -32 343t-143 130zM489 684q35 8 195 76.5 t178 79.5l72 20v-86q-45 -10 -78 -31.5t-55.5 -44t-40 -47t-26.5 -44t-22.5 -56.5t-19.5 -83t-6 -77q0 -70 71.5 -163t162.5 -93q221 0 346 191.5t125 455.5q0 297 -134.5 503t-394.5 206q-174 0 -273.5 -114.5t-99.5 -239.5v-453z" />
<glyph unicode="Q" horiz-adv-x="1687" d="M20 821q0 221 161 406.5t359.5 302.5t264.5 117q70 0 264.5 -101.5t358 -300t163.5 -481.5q0 -92 -74.5 -247t-240.5 -284q94 -100 123 -176q23 -86 36 -124.5t25.5 -84t22.5 -77.5l41 -74l73 -74l50 -41q-4 -2 -7 -4q6 -20 27 -49h-98q-254 102 -366.5 226t-174.5 302 q-90 -25 -158.5 -61.5t-103.5 -36.5q-78 0 -261 107.5t-334 303t-151 451.5zM236 961q0 -106 79.5 -269.5t241.5 -290.5t387 -127q174 0 292 120t118 272q0 203 -213 435t-494 232q-199 0 -305 -115.5t-106 -256.5z" />
<glyph unicode="R" horiz-adv-x="1884" d="M8 1358v59q117 10 261.5 72.5t279.5 122.5q164 61 305 61q209 0 369.5 -106.5t160.5 -288.5q0 -190 -165.5 -299t-264.5 -172q129 -98 225.5 -227t176.5 -236q76 -90 149 -90q57 35 91 59.5t75 55.5q8 6 26.5 24.5t47.5 26.5t33 8q14 0 30.5 -13.5t16.5 -41.5 q0 -25 -11.5 -44.5t-31.5 -21.5l-140 -190q-102 -102 -132.5 -119.5t-125.5 -17.5q-145 0 -274 161q-106 152 -213 305q-131 164 -279 164q-113 0 -146.5 -37.5t-33.5 -119.5v-39q0 -20 2 -41q0 -158 65.5 -267.5t72.5 -125.5h-551q6 18 61 97t55 118v946q0 86 -28.5 127 t-106.5 90zM461 709q231 111 411.5 261t180.5 290q0 127 -91.5 200.5t-187.5 73.5q-115 0 -214 -91t-99 -165v-569z" />
<glyph unicode="S" horiz-adv-x="1486" d="M23 575v97q68 -31 179 -69t163 -50q-8 -39 -28 -93t-20 -63q0 -109 127 -210t306 -101q160 0 266 106.5t106 262.5q0 135 -51 205.5t-166 70.5q-33 0 -236.5 -40t-273.5 -40q-117 0 -195.5 182.5t-78.5 327.5q0 215 171 362.5t398 147.5q182 0 359.5 -117.5t236.5 -255.5 q-37 -12 -104.5 -29.5t-100.5 -27.5h-77q-31 180 -124.5 246.5t-209.5 66.5q-147 0 -229.5 -84t-82.5 -210q0 -100 67 -187.5t185 -87.5l570 98q63 -43 140 -188t77 -342q0 -217 -168 -402.5t-479 -185.5q-242 0 -394.5 119t-244.5 293q-45 98 -88 198z" />
<glyph unicode="T" horiz-adv-x="1490" d="M-66 1288q35 176 190 267.5t275 91.5h955q-35 -98 -68 -197q-45 -94 -127 -94l-719 96q-23 -37 -60.5 -157.5t-37.5 -465.5q0 -276 130 -476.5t376 -200.5q137 0 273 80.5t251 150.5q8 -10 14.5 -23.5t6.5 -33.5q0 -63 -187.5 -207t-435.5 -144q-106 0 -289.5 80 t-327 249t-143.5 429q0 199 102.5 378t188.5 323q-115 0 -200 -48.5t-167 -97.5z" />
<glyph unicode="U" horiz-adv-x="1619" d="M-2 842q0 102 77 305t236 395q-96 27 -161 27q-59 0 -132 -27l-2 88l82 25h1450q-12 -12 -37.5 -44t-76 -65t-50.5 -121v-993q0 -119 35 -175t119 -81v-57q-80 -76 -132 -116t-81 -40q-68 0 -132.5 73t-82.5 163q-66 -25 -179.5 -140.5t-230.5 -115.5q-47 0 -222 114.5 t-327.5 318.5t-152.5 466zM315 887q0 -61 9.5 -123t16.5 -102.5t23.5 -72.5t34 -54.5t37.5 -47.5q61 -111 152.5 -171t171.5 -60q147 0 229 93t82 317v741l-47 149q-47 0 -123 10.5t-108 10.5q-31 0 -62 -5t-63.5 -16.5t-60 -25.5t-61.5 -41t-52.5 -53.5t-43 -69.5t-39 -84 t-33 -91t-30.5 -89t-22.5 -99.5t-10.5 -115.5z" />
<glyph unicode="V" horiz-adv-x="1605" d="M4 1364v80q12 100 90 166.5t166 66.5q100 0 201 -118q59 -78 121 -154q31 23 97 106.5t109 165.5h60q61 -53 170.5 -94t183.5 -41q27 8 90.5 34t124.5 101h117q-61 -174 -119.5 -328.5t-113 -298t-153.5 -428t-153.5 -429t-87.5 -192.5t-78 -48q-57 0 -160.5 303 t-219 641t-194.5 423t-132 85t-66 -6q-20 -17 -53 -35zM633 1305l295 -803l293 766q-209 0 -322 28q-84 33 -168 68q-14 0 -34.5 -13t-63.5 -46z" />
<glyph unicode="W" horiz-adv-x="2150" d="M16 819q0 188 209 422l320 324h-113q-76 -25 -159 -31t-142 -27h-96v135h1960v-59q-57 -45 -85 -88t-28 -106v-166v-559q0 -305 30 -388t138 -104v-57q-78 -57 -147.5 -107.5t-77.5 -50.5q-76 0 -133.5 73.5t-94.5 182.5q-84 -111 -140 -174.5t-161 -63.5 q-84 0 -121.5 28t-216.5 228l-163 -213q-45 -43 -121 -43q-68 0 -230.5 153t-295 353.5t-132.5 337.5zM412 879q0 -184 75.5 -330t162.5 -232t102 -86q35 0 66.5 37t62.5 62q-96 205 -140.5 359.5t-44.5 228.5q0 102 98.5 240t214 252t156.5 136q-55 12 -122.5 17.5 t-98.5 9.5q-66 0 -124 -21.5t-95 -46.5q-33 -27 -58.5 -46t-56 -43.5t-53 -55.5t-45.5 -77t-44.5 -91t-38.5 -131t-17 -182zM1120 932q0 -37 2 -70t4 -61q0 -199 62.5 -384.5t183.5 -185.5q70 0 138.5 117t68.5 176v885q0 25 -13.5 46.5t-29.5 39.5l-51 51q-49 0 -76 -7 t-63 -32q-25 -16 -35.5 -28.5t-40 -59.5t-36.5 -63.5t-29.5 -67.5t-33 -77.5t-20.5 -63.5t-17.5 -87t-9.5 -63.5t-3 -29t-1 -35.5z" />
<glyph unicode="X" horiz-adv-x="1560" d="M-59 -6q188 45 329.5 229.5t231.5 403.5q33 96 67 192q-35 74 -77.5 165t-77.5 157.5t-52.5 100.5t-47 66.5t-54 54t-58.5 36t-61.5 18.5t-58.5 4h-64q131 123 188.5 168t88.5 56q119 0 235 -123q98 -145 197 -289q51 57 127 244.5t150 187.5q47 0 100 -49t115 -49 q51 0 95 25.5t81 72.5h61q-39 -201 -143.5 -274.5t-227.5 -73.5q-43 0 -68.5 5t-35.5 9q-27 0 -100.5 -146.5t-73.5 -187.5l82 -209q109 -240 256 -419t330 -179v-61l-275 -197q-276 188 -341.5 264t-93.5 181.5t-118 226.5q-80 -168 -147.5 -312.5t-145.5 -206.5t-297 -153 h-116v62z" />
<glyph unicode="Y" horiz-adv-x="1605" d="M-12 1413l12 62q63 104 116.5 140t153.5 36q150 0 222 -88q55 -84 110 -166q68 61 132.5 166.5t101.5 105.5q31 0 151.5 -68.5t218.5 -68.5q145 0 213 119h99v-60l-623 -1671v-22q0 -55 37 -95.5t155 -40.5q74 0 196 63.5t165 72.5q-29 -174 -189.5 -280.5t-287.5 -106.5 q-121 0 -196 76.5t-75 195.5q0 31 18.5 98.5t39.5 132.5q-45 129 -97.5 284t-171 482.5t-179 472t-175.5 144.5l-135 -58zM641 1272q18 -29 77.5 -194t121 -331.5t94.5 -226.5l246 610l61 160q-47 -14 -102 -28q-43 -11 -69 -12q-7 0 -13 1q-147 14 -215 41q-43 23 -84 47 q-31 0 -68 -28.5t-49 -38.5z" />
<glyph unicode="Z" horiz-adv-x="1576" d="M-18 57l1019 1235l-567 78q-121 0 -226.5 -81t-164.5 -95q53 205 194.5 347t294.5 142q12 0 206 -49t325 -49q119 0 170 25q61 43 123 73h57v-75l-1001 -1235l610 -101q47 0 191.5 74t218.5 201h61v-76q-111 -162 -219 -321q-147 -172 -369 -173q-63 0 -246.5 40 t-283.5 40q-113 0 -191 -30q-61 -33 -123 -68q-12 0 -33 26.5t-46 71.5z" />
<glyph unicode="\" horiz-adv-x="1191" d="M41 1442q2 59 12 118.5t64 59.5q14 0 97 -58.5t165 -119.5q4 -6 4 -25q0 -37 -23.5 -96t-35.5 -59q-18 0 -143.5 77.5t-139.5 102.5zM283 1022q0 33 5 77t40 124q74 -35 174 -101.5t119 -99.5q10 -18 -12.5 -104.5t-26.5 -102.5q92 -68 183 -133.5t97 -75.5t6 -31 q0 -49 -23.5 -108t-45.5 -59q-10 0 -139.5 93t-134.5 105t-5 23q0 29 11.5 74t43.5 122q-123 76 -201.5 127.5t-90.5 69.5zM764 188q10 59 27.5 119t48.5 60q41 0 145.5 -78t128.5 -119q6 -14 -8 -78.5t-37 -99.5q-96 55 -194.5 114t-110.5 82z" />
<glyph unicode="_" horiz-adv-x="1851" d="M113 -225q0 14 58 63t120 96q27 0 103.5 -72.5t76.5 -86.5q0 -20 -77 -99t-103 -79q-59 35 -118.5 81t-59.5 97zM510 -244q35 53 101.5 115.5t99.5 62.5q16 0 70.5 -45t136.5 -114q70 55 135 107t73 52q29 0 114 -74.5t85 -103.5q0 -8 -93 -83.5t-106 -75.5 q-35 14 -77.5 47.5t-141.5 130.5q-68 -72 -123 -125t-73 -53q-33 16 -75 45.5t-126 113.5zM1366 -225q0 41 77 100t120 59q14 0 77.5 -51t100.5 -96q-55 -63 -114.5 -126.5t-82.5 -63.5q-59 45 -118.5 96t-59.5 82z" />
<glyph unicode="a" horiz-adv-x="1173" d="M12 485q0 131 49.5 227.5t107.5 156t228 195.5t193 136l248 -139l155 -82q72 -45 72 -68t-45 -63.5t-45 -85.5v-318q-6 -39 -11.5 -79.5t-5.5 -59.5q0 -29 9 -29q4 0 9 6.5t7 10.5q0 -29 58.5 -85t58.5 -63q0 -6 -97.5 -84.5t-107.5 -78.5q-55 35 -110.5 86t-55.5 131 l-41 16q-31 -29 -154.5 -123t-134.5 -94q-119 0 -253 154.5t-134 332.5zM270 612q0 -135 90.5 -231t167.5 -96q90 0 135.5 38.5t45.5 71.5v396q-51 53 -118 87.5t-122 61.5q-74 0 -136.5 -131t-62.5 -197z" />
<glyph unicode="b" horiz-adv-x="1118" d="M-2 1481q0 14 98.5 61t186.5 107h49v-727h41q4 2 118.5 98t137.5 96q143 0 277 -164t134 -356q0 -96 -61 -213t-147.5 -183.5t-214.5 -155.5t-148 -89l-363 287q-2 10 -6 143t-4 299v592q-35 86 -56.5 127t-41.5 78zM352 655q0 -184 46 -294.5t208 -110.5q113 0 175.5 83 t62.5 173q0 160 -106.5 253t-198.5 93q-96 0 -141.5 -43t-45.5 -154z" />
<glyph unicode="c" horiz-adv-x="835" d="M2 344v457q0 39 69.5 80t220 142t167.5 101q80 -53 167 -109.5t115 -84.5q-8 -23 -70.5 -105t-74.5 -82q-14 0 -127 87.5t-166 87.5q-18 0 -38.5 -23t-20.5 -45v-430q0 -72 61.5 -133.5t153.5 -61.5q66 0 142.5 36t121.5 83h29v-51q-78 -154 -137.5 -232.5t-231.5 -78.5 q-154 0 -267.5 119.5t-113.5 242.5z" />
<glyph unicode="d" horiz-adv-x="1142" d="M-10 526q0 164 93 300.5t202.5 221.5t134.5 85q43 -12 87 -36t118 -81h22v205q0 129 -20 194l-49 90q0 12 87 62.5t205 103.5h21v-1341q35 -55 72 -111q35 -37 122 -37v-47q-72 -47 -135 -102.5t-80 -55.5q-57 0 -141 89q-76 92 -80 98q-25 -20 -141.5 -103.5 t-134.5 -83.5q-84 0 -233.5 149.5t-149.5 399.5zM176 625q0 -74 81 -218.5t204 -144.5q88 0 137 45t49 90v265q0 80 -87 158.5t-159 78.5t-148.5 -84t-76.5 -190z" />
<glyph unicode="e" horiz-adv-x="811" d="M20 535q0 170 41 242.5t157 188t149.5 148.5t56.5 33q96 -68 194.5 -142.5t112.5 -115.5l-463 -453q55 -109 123 -138.5t182 -29.5q100 0 148 19h20q-51 -102 -106 -204.5t-90 -102.5q-55 0 -173 32.5t-235 156.5t-117 366zM203 647q0 -84 53 -112l219 215 q-27 49 -68.5 75.5t-80.5 44.5q-43 0 -83 -72.5t-40 -150.5z" />
<glyph unicode="f" horiz-adv-x="802" d="M12 940v168h99q80 0 79 29q0 111 -24 186q-29 70 -55 139q0 23 190.5 105t233.5 82q51 0 114.5 -88t63.5 -140q0 -12 -28 -33.5t-150 -103.5q-27 45 -49.5 86t-57.5 92h-22v-41l40 -284q4 -12 25 -18.5t45 -6.5h25q16 4 22 4h109v-158q-39 -16 -66 -16q-16 0 -34.5 8 t-26.5 8q-57 0 -99 -28v-559l-4 -371q-31 -2 -84 -4t-67 -2q-41 0 -66.5 2t-34.5 10v934h-178z" />
<glyph unicode="g" horiz-adv-x="1118" d="M18 -182l240 98h29q23 -127 87 -212t171 -85q109 0 178.5 58.5t69.5 158.5q0 16 -35 129t-35 219h-29q-31 -29 -154.5 -123t-133.5 -94q-119 0 -253.5 154.5t-134.5 333.5q0 131 49.5 227t107.5 155.5t228 195.5t193 136l248 -139l155 -82q72 -45 72 -67q0 -23 -45 -64 t-45 -86v-317q-4 -20 -6 -62.5t-2 -44.5q0 -100 40 -243.5t40 -196.5q0 -127 -143.5 -262t-374.5 -135q-172 0 -315 92t-202 256zM276 582q0 -135 90.5 -231.5t168.5 -96.5q90 0 135 39t45 72v395q-51 53 -118 88t-122 61q-74 0 -136.5 -130.5t-62.5 -196.5z" />
<glyph unicode="h" horiz-adv-x="1118" d="M16 1481q0 12 136.5 83.5t169.5 92.5h59q-10 -88 -10 -158q0 -63 -9.5 -206.5t-9.5 -176.5q0 -39 2 -78t2 -43q0 -8 -4 -28h29q23 8 121 88t116 80q143 0 289 -158t146 -385q0 -119 -54.5 -250t-157 -234.5t-151.5 -145.5t-61 -42q-4 0 -62 60q174 203 216 298t42 214 q0 137 -78.5 251.5t-226.5 114.5q-84 0 -121 -20.5t-37 -79.5v-768q-41 -8 -153 -8q-31 0 -54.5 1t-50.5 7v1233q0 94 -26 153q-31 52 -62 105z" />
<glyph unicode="i" horiz-adv-x="675" d="M35 965q57 55 117.5 110t78.5 55q74 -49 146 -115.5t72 -150.5v-366q0 -184 27.5 -260t152.5 -86v-39q-16 -14 -124 -77t-124 -63q-61 49 -123.5 105.5t-62.5 93.5v612q0 74 -80 119.5t-80 61.5zM150 1393q4 27 4 45q0 70 82.5 114.5t212.5 114.5h30q6 -25 6 -41 q0 -18 -2 -22.5t-4 -6.5v-43q0 -20 2 -36q0 -49 -49 -68q-129 -37 -278 -82q-4 17 -4 25z" />
<glyph unicode="j" horiz-adv-x="491" d="M-47 -461q76 68 136.5 159t60.5 196v681v74q0 100 -18.5 149.5t-98.5 119.5q18 35 163.5 106.5t180.5 101.5h20v-966q4 -25 7.5 -67t3.5 -77q0 -29 -2.5 -60.5t-8.5 -61.5q-27 -145 -170 -273.5t-245 -128.5q-14 0 -21.5 16.5t-7.5 30.5zM111 1341v158q14 20 136 77.5 t159 82.5h38v-209z" />
<glyph unicode="k" horiz-adv-x="1114" d="M-2 1466q0 10 139 89t215 110q4 -8 21 0q-8 -43 -14.5 -89t-6.5 -69v-569q4 -1 8 -1q53 0 154 99q109 106 133 107q109 0 222.5 -129t113.5 -303q0 -51 -95 -87t-114 -51q125 -143 187 -303q47 -154 59 -190v-88h-275q0 184 -89 338.5t-246 154.5q-37 0 -49.5 -20.5 t-12.5 -69.5q0 -25 2 -88t2 -80v-235h-246v1259q0 37 -34.5 98.5t-73.5 116.5zM360 643q0 -25 5.5 -38t25.5 -13q150 0 213.5 55t100.5 113q0 37 -45.5 82t-100.5 45q-72 0 -134.5 -46t-62.5 -141q-2 -37 -2 -57z" />
<glyph unicode="l" horiz-adv-x="557" d="M-16 1483v30l313 168h41v-1269q0 -143 72.5 -201.5t72.5 -85.5q0 -14 -89 -75.5t-107 -61.5q-16 0 -110.5 90t-94.5 117v1044q0 76 -23.5 131.5t-74.5 112.5z" />
<glyph unicode="m" horiz-adv-x="1806" d="M-29 930v20q8 31 77 84t138 103q80 0 152 -103q31 -57 63 -114h23q25 27 160 122t153 95q43 0 132 -38t107.5 -62.5t35 -70.5t41.5 -46q6 0 159.5 108.5t180.5 108.5q96 0 190 -79t94 -263v-805h-245v432v85q0 42 2 81q0 152 -38 217t-169 65q-119 0 -159 -32.5 t-40 -108.5q0 -43 6 -122t6 -99v-518h-254v735q0 70 -60 113t-138 43q-10 0 -94 -19.5t-101 -30.5v-841h-243v694q0 143 -34 194.5t-145 51.5z" />
<glyph unicode="n" horiz-adv-x="1191" d="M-10 948v29l225 166q111 -49 160 -101q33 -47 67 -94l303 205q182 -49 253 -112.5t71 -219.5v-807q-23 -10 -63 -10q-16 0 -93 5t-110 5v658q0 121 -37 168t-137 47q-66 0 -135.5 -26.5t-69.5 -61.5v-803h-248v813q0 45 -47 75.5t-139 63.5z" />
<glyph unicode="o" horiz-adv-x="1048" d="M14 600q0 170 116 291t253 188.5t158 67.5q137 0 284.5 -194.5t147.5 -450.5q0 -160 -111.5 -276.5t-245 -184.5t-151.5 -68q-152 0 -301.5 208t-149.5 419zM160 676q0 -117 134 -263.5t298 -146.5q109 0 171 39t62 137q0 127 -129 273.5t-311 146.5q-84 0 -154.5 -54 t-70.5 -132z" />
<glyph unicode="p" horiz-adv-x="1130" d="M-14 967q0 27 99 69.5t222 116.5h29v-197q76 12 160 104.5t133 92.5q131 0 272 -139.5t141 -378.5q0 -252 -149.5 -449.5t-349.5 -197.5q-33 0 -98.5 43t-108.5 65v-577h-234v665q0 164 -2 249t-8 153q0 176 -33 268q-36 56 -73 113zM348 506q0 -158 92 -219.5t170 -61.5 q133 0 189.5 83t56.5 169q0 168 -117.5 279.5t-226.5 111.5q-23 0 -61.5 -9t-102.5 -38v-315z" />
<glyph unicode="q" horiz-adv-x="1097" d="M31 479q0 78 24.5 164t81.5 170q86 109 177.5 216.5t125.5 107.5q82 0 207 -54q59 -29 119 -55q23 0 100.5 49t104.5 49q29 0 28 -39q-18 -47 -32.5 -95t-14.5 -81v-1411h-245v606h-11v23q-10 -6 -118.5 -87t-126.5 -81q-139 0 -279.5 126t-140.5 392zM236 608 q0 -131 76.5 -246.5t197.5 -115.5q115 0 152.5 32.5t37.5 81.5q0 10 -2 26.5t-2 23.5q0 238 -37.5 349t-207.5 111q-80 0 -147.5 -80t-67.5 -182z" />
<glyph unicode="r" horiz-adv-x="868" d="M-12 938v20q16 18 113.5 92t111.5 74q61 0 116.5 -72.5t92.5 -121.5q82 66 162 130t92 64q27 0 78 -76.5t51 -187.5q0 -41 -91 -131t-167 -117q-4 20 -8 86t-4 115q0 39 4 55h-41q-31 0 -53.5 -20.5t-22.5 -46.5v-817h-246v442v97q0 48 2 93q0 143 -35.5 217t-154.5 105z " />
<glyph unicode="s" horiz-adv-x="983" d="M-10 297q0 18 89 64.5t154 70.5v-98q0 -98 64.5 -160.5t163.5 -62.5q94 0 159.5 61t65.5 154q0 84 -58.5 158.5t-138.5 74.5q-72 0 -196.5 -53t-147.5 -53q-43 55 -85 132t-42 193q0 162 134.5 272.5t289.5 110.5q109 0 246 -75.5t176 -180.5l-248 -137 q-31 127 -63.5 196.5t-151.5 69.5q-70 0 -119 -53t-49 -125q0 -82 55.5 -143.5t123.5 -61.5q78 0 213 63.5t141 63.5q45 -51 91 -132t46 -232q0 -178 -127 -305t-315 -127q-137 0 -304 108.5t-167 206.5z" />
<glyph unicode="t" horiz-adv-x="770" d="M10 965v106l359 315h67q0 -47 2 -86l4 -77q0 -41 -6 -90h256v-168h-248v-603q0 -90 65.5 -134t162.5 -44v-37q-102 -80 -160.5 -119.5t-75.5 -39.5q-59 0 -152.5 81t-93.5 185v688q-20 14 -41.5 20.5t-39.5 6.5q-6 0 -39 -2t-60 -2z" />
<glyph unicode="u" horiz-adv-x="1187" d="M-12 983q53 57 108.5 112.5t77.5 55.5q16 0 29.5 -14.5t27.5 -26.5q84 -57 106.5 -110.5t22.5 -161.5v-101v-331q0 -61 68 -114.5t129 -53.5q41 0 95.5 24.5t101.5 63.5v784q55 12 112.5 23.5t73.5 17.5h70v-512q0 -63 -4.5 -156.5t-6.5 -167.5q0 -68 58.5 -101.5 t58.5 -63.5q0 -20 -88 -94t-98 -74q-72 0 -133 102q-49 109 -54 115q-51 -23 -174 -120t-151 -97q-35 0 -174.5 91t-139.5 183v406q-4 12 -6 35.5t-2 39.5v55v33q-8 37 -58 89.5t-50 68.5z" />
<glyph unicode="v" horiz-adv-x="1196" d="M41 1063v61h346q33 -53 66.5 -121.5t58.5 -84.5q72 72 146.5 153.5t107.5 81.5q98 0 222 -100.5t124 -294.5q0 -113 -35 -197t-100.5 -182t-119.5 -158.5t-114 -126.5q-27 -45 -58.5 -88t-68.5 -43q-80 0 -188.5 362.5t-184 515t-202.5 222.5zM547 797l227 -566 q66 100 103.5 186.5t37.5 172.5q0 106 -64.5 186t-164.5 80q-39 0 -75 -11t-64 -20v-28z" />
<glyph unicode="w" horiz-adv-x="1638" d="M25 903v29q0 16 59 131t86 115q96 0 135 -29t191 -217q35 31 98 138.5t82 107.5q166 0 258 -146q63 -156 72 -170h20q29 29 108.5 172.5t102.5 143.5q84 0 207 -100.5t123 -262.5q0 -96 -43 -190.5t-151.5 -235.5t-197 -265t-120.5 -124q-25 0 -95.5 213t-82.5 231 q-35 -33 -157 -238.5t-155 -205.5q-57 0 -158.5 359.5t-159 456.5t-157.5 97q-28 0 -65 -10zM528 834l177 -494q53 94 83.5 140t53.5 75q0 53 -76 195.5t-129 142.5q-27 0 -66 -14.5t-43 -16.5v-28zM1055 778l164 -456q57 66 101 155.5t44 163.5q0 109 -58.5 176.5 t-105.5 67.5q-27 0 -66.5 -31t-78.5 -76z" />
<glyph unicode="x" horiz-adv-x="1146" d="M-39 -66q0 18 113.5 156.5t197.5 267.5t84 226q0 127 -88 192l-266 115l150 256h28l314 -279l307 267q31 -14 143.5 -120t112.5 -134q0 -12 -67.5 -80t-82.5 -68q-29 0 -93 44t-112 44q-45 0 -71.5 -33.5t-26.5 -130.5v-32q0 -254 89 -281t341 -65v-37 q-66 -109 -129 -168.5t-114 -98.5l-316 267l-381 -355q-27 0 -44 -11t-19 -11q-25 18 -47.5 36.5t-22.5 32.5z" />
<glyph unicode="y" horiz-adv-x="1114" d="M-2 -467l479 549q-35 80 -167 453.5t-312 554.5v30q49 14 106 15q41 0 90.5 -7.5t57.5 -7.5q121 0 139.5 -73.5t54.5 -110.5q70 74 143 148.5t95 74.5q111 0 231.5 -104.5t120.5 -296.5q0 -154 -130 -345.5t-386 -487.5t-336 -410h-168l-18 10v8zM487 838l205 -549 q55 43 100.5 149.5t45.5 171.5q0 113 -56.5 188.5t-156.5 75.5q-53 0 -74 -3.5t-64 -32.5z" />
<glyph unicode="z" horiz-adv-x="1097" d="M-14 -12v57q74 80 166 182.5t227 257t190.5 223t55.5 91.5q0 39 -37 49t-119 10q-147 0 -219 -29q-82 -45 -164 -88v50q31 61 65.5 143t71.5 180h772v-49l-331 -373q-133 -133 -213 -247.5t-80 -135.5q0 -37 27.5 -48t84.5 -11h39q20 0 43 2q137 0 217 18.5t185 100.5h20 v-29q0 -33 -53 -179.5t-60.5 -152.5t-61.5 -12t-91 -10h-735z" />
<glyph unicode="|" d="M92 176q45 59 96.5 118.5t81.5 59.5q41 0 100.5 -76.5t59.5 -119.5q0 -14 -51 -78t-96 -100q-63 55 -127 114t-64 82zM92 594q14 35 48 78t130 141q-72 68 -125 123t-53 74q16 33 46 74.5t114 125.5q53 -35 115.5 -101.5t62.5 -98.5q0 -16 -45 -70.5t-115 -136.5 q55 -70 107.5 -135.5t52.5 -73.5q0 -29 -74.5 -114t-103.5 -85q-8 0 -84 93.5t-76 105.5zM92 1430q35 59 81 118.5t97 59.5q14 0 63.5 -58.5t96.5 -119.5q0 -27 -72.5 -104t-87.5 -77q-20 0 -99 77t-79 104z" />
<glyph unicode="&#xaa;" horiz-adv-x="1173" d="M12 485q0 131 49.5 227.5t107.5 156t228 195.5t193 136l248 -139l155 -82q72 -45 72 -68t-45 -63.5t-45 -85.5v-318q-6 -39 -11.5 -79.5t-5.5 -59.5q0 -29 9 -29q4 0 9 6.5t7 10.5q0 -29 58.5 -85t58.5 -63q0 -6 -97.5 -84.5t-107.5 -78.5q-55 35 -110.5 86t-55.5 131 l-41 16q-31 -29 -154.5 -123t-134.5 -94q-119 0 -253 154.5t-134 332.5zM270 612q0 -135 90.5 -231t167.5 -96q90 0 135.5 38.5t45.5 71.5v396q-51 53 -118 87.5t-122 61.5q-74 0 -136.5 -131t-62.5 -197z" />
<glyph unicode="&#xad;" horiz-adv-x="2048" d="M0 672l115 229l1622 33l-82 -229z" />
<glyph unicode="&#xb2;" horiz-adv-x="1228" d="M-18 -6v67q59 45 232 221.5t311.5 359.5t138.5 286q0 111 -81 155.5t-194 44.5q-119 0 -254 -67v41q43 63 132 248.5t151 185.5q201 0 374 -131t173 -344q0 -207 -207 -418q-166 -154 -332 -305h70l612 63h35q-76 -131 -190.5 -269t-161.5 -138h-809z" />
<glyph unicode="&#xb3;" horiz-adv-x="1228" d="M0 387v37h55q76 -70 186.5 -126t215.5 -56q119 0 217 89t98 187q0 139 -92 175t-250 36h-35v135q115 0 228.5 41t113.5 142q0 45 -68.5 101t-201.5 56q-35 0 -107.5 -15t-126.5 -38v29q68 125 105 260t119 135q201 0 369.5 -154.5t168.5 -279.5q0 -66 -62.5 -151 t-78.5 -118q51 -49 136 -107t100.5 -99t27.5 -72t12 -55q0 -55 -18 -98.5t-29 -67.5q-53 -154 -183 -267.5t-337 -113.5q-203 0 -363.5 134t-199.5 261z" />
<glyph unicode="&#xb9;" horiz-adv-x="557" d="M-33 1266l424 266h12v-1176l33 -370h-409q53 186 67.5 301.5t14.5 330.5q0 358 -43 482q-62 96 -99 166z" />
<glyph unicode="&#xba;" horiz-adv-x="1048" d="M14 600q0 170 116 291t253 188.5t158 67.5q137 0 284.5 -194.5t147.5 -450.5q0 -160 -111.5 -276.5t-245 -184.5t-151.5 -68q-152 0 -301.5 208t-149.5 419zM160 676q0 -117 134 -263.5t298 -146.5q109 0 171 39t62 137q0 127 -129 273.5t-311 146.5q-84 0 -154.5 -54 t-70.5 -132z" />
<glyph unicode="&#xd7;" horiz-adv-x="0" />
<glyph unicode="&#x141;" horiz-adv-x="0" />
<glyph unicode="&#xfd;" horiz-adv-x="0" />
<glyph unicode="&#x152;" horiz-adv-x="3293" d="M1638 784q0 172 77 319.5t209 270.5t283.5 195.5t250.5 72.5q154 0 299 -59q135 -68 270 -133q23 14 52.5 29.5t80.5 29.5v-77q-35 -33 -166 -130.5t-166 -117.5q-90 193 -180 251t-176 58q-27 -2 -35 -2q-207 0 -279.5 -119t-156.5 -340v-133l227 27l336 16l270 8l140 8 l204 9q-37 -41 -78.5 -86t-64.5 -68q-61 -68 -121 -133q-70 -68 -153 -68l-686 97h-74v-134q68 -219 179.5 -348t313.5 -129q106 0 243.5 97.5t137.5 304.5h308v-58q-154 -276 -330 -376.5t-395 -100.5q-313 0 -566.5 232.5t-253.5 586.5zM-2 834q0 256 259 540.5t525 284.5 q233 0 489.5 -273.5t256.5 -627.5q0 -201 -152.5 -379t-345 -293t-268.5 -115q-84 0 -270.5 98.5t-340 293.5t-153.5 471zM213 991q0 -242 216 -473t511 -231q160 0 266.5 104.5t106.5 226.5q0 217 -218 472.5t-491 255.5q-160 0 -275.5 -87.5t-115.5 -267.5z" />
<glyph unicode="&#x153;" horiz-adv-x="1859" d="M1069 535q0 170 41 242.5t157 188t149.5 148.5t56.5 33q96 -68 194.5 -142.5t112.5 -115.5l-463 -453q55 -109 123 -138.5t182 -29.5q100 0 148 19h20q-51 -102 -106 -204.5t-90 -102.5q-55 0 -173 32.5t-235 156.5t-117 366zM1252 647q0 -84 53 -112l219 215 q-27 49 -68.5 75.5t-80.5 44.5q-43 0 -83 -72.5t-40 -150.5zM14 600q0 170 116 291t253 188.5t158 67.5q137 0 284.5 -194.5t147.5 -450.5q0 -160 -111.5 -276.5t-245 -184.5t-151.5 -68q-152 0 -301.5 208t-149.5 419zM160 676q0 -117 134 -263.5t298 -146.5q109 0 171 39 t62 137q0 127 -129 273.5t-311 146.5q-84 0 -154.5 -54t-70.5 -132z" />
<glyph unicode="&#x2000;" horiz-adv-x="868" />
<glyph unicode="&#x2001;" horiz-adv-x="1738" />
<glyph unicode="&#x2002;" horiz-adv-x="868" />
<glyph unicode="&#x2003;" horiz-adv-x="1738" />
<glyph unicode="&#x2004;" horiz-adv-x="579" />
<glyph unicode="&#x2005;" horiz-adv-x="434" />
<glyph unicode="&#x2006;" horiz-adv-x="288" />
<glyph unicode="&#x2007;" horiz-adv-x="288" />
<glyph unicode="&#x2008;" horiz-adv-x="217" />
<glyph unicode="&#x2009;" horiz-adv-x="346" />
<glyph unicode="&#x200a;" horiz-adv-x="96" />
<glyph unicode="&#x2010;" horiz-adv-x="2048" d="M0 672l115 229l1622 33l-82 -229z" />
<glyph unicode="&#x2011;" horiz-adv-x="2048" d="M0 672l115 229l1622 33l-82 -229z" />
<glyph unicode="&#x2012;" horiz-adv-x="2048" d="M0 672l115 229l1622 33l-82 -229z" />
<glyph unicode="&#x2013;" horiz-adv-x="1024" d="M205 512v205h614v-205h-614z" />
<glyph unicode="&#x2014;" horiz-adv-x="2048" d="M205 512v205h1638v-205h-1638z" />
<glyph unicode="&#x2019;" d="M35 1419q0 14 43 115.5t72 185.5l22 19q27 -18 34 -31.5t11 -21.5q41 -45 57.5 -63.5t16.5 -35.5q0 -14 -176 -287q-12 8 -23.5 25.5t-34 44t-22.5 49.5z" />
<glyph unicode="&#x201c;" horiz-adv-x="798" d="M23 1419q0 14 43 115.5t71 185.5l23 19q27 -18 34 -31.5t11 -21.5q41 -45 57.5 -63.5t16.5 -35.5q0 -14 -177 -287q-12 8 -23 25.5t-33.5 44t-22.5 49.5zM367 1407q0 14 43 115.5t71 185.5l23 18q27 -18 34 -31.5t11 -21.5q41 -45 57.5 -63.5t16.5 -34.5q0 -14 -177 -287 q-12 8 -23 25.5t-33.5 44t-22.5 49.5z" />
<glyph unicode="&#x201d;" horiz-adv-x="798" d="M23 1419q0 14 43 115.5t71 185.5l23 19q27 -18 34 -31.5t11 -21.5q41 -45 57.5 -63.5t16.5 -35.5q0 -14 -177 -287q-12 8 -23 25.5t-33.5 44t-22.5 49.5zM367 1407q0 14 43 115.5t71 185.5l23 18q27 -18 34 -31.5t11 -21.5q41 -45 57.5 -63.5t16.5 -34.5q0 -14 -177 -287 q-12 8 -23 25.5t-33.5 44t-22.5 49.5z" />
<glyph unicode="&#x2026;" horiz-adv-x="2015" d="M1376 262l229 -262l197 262l-180 230zM705 262l229 -262l197 262l-180 230zM33 262l229 -262l197 262l-180 230z" />
<glyph unicode="&#x202f;" horiz-adv-x="346" />
<glyph unicode="&#x205f;" horiz-adv-x="434" />
<glyph unicode="&#x2122;" horiz-adv-x="3407" d="M1491 1638h369q29 -4 57.5 -7t56 -17.5t145 -274.5t184.5 -395t130 -184l334 702q-37 47 -52.5 59.5t-66.5 37.5v57h625v-57q-59 -43 -89 -74t-30 -82v-1167q0 -61 38 -118t120 -77l-11 -57l-593 -2v59q84 43 118.5 95t34.5 138v1012h-37l-469 -1032h-37l-508 1032h-36 v-1091q-12 -78 -34 -212.5t-77 -290t-143 -216.5v59q70 170 102.5 370.5t32.5 387.5v895q0 231 -53 291q-33 29 -53.5 48t-32 50.5t-25.5 60.5zM-66 1288q35 176 190 267.5t275 91.5h955q-35 -98 -68 -197q-45 -94 -127 -94l-719 96q-23 -37 -60.5 -157.5t-37.5 -465.5 q0 -276 130 -476.5t376 -200.5q137 0 273 80.5t251 150.5q8 -10 14.5 -23.5t6.5 -33.5q0 -63 -187.5 -207t-435.5 -144q-106 0 -289.5 80t-327 249t-143.5 429q0 199 102.5 378t188.5 323q-115 0 -200 -48.5t-167 -97.5z" />
<glyph unicode="&#xe000;" horiz-adv-x="1145" d="M0 1145h1145v-1145h-1145v1145z" />
<glyph unicode="&#xfb01;" horiz-adv-x="1478" d="M838 965q57 55 117.5 110t78.5 55q74 -49 146 -115.5t72 -150.5v-366q0 -184 27.5 -260t152.5 -86v-39q-16 -14 -124 -77t-124 -63q-61 49 -123.5 105.5t-62.5 93.5v612q0 74 -80 119.5t-80 61.5zM953 1393q4 27 4 45q0 70 82.5 114.5t212.5 114.5h30q6 -25 6 -41 q0 -18 -2 -22.5t-4 -6.5v-43q0 -20 2 -36q0 -49 -49 -68q-129 -37 -278 -82q-4 17 -4 25zM12 940v168h99q80 0 79 29q0 111 -24 186q-29 70 -55 139q0 23 190.5 105t233.5 82q51 0 114.5 -88t63.5 -140q0 -12 -28 -33.5t-150 -103.5q-27 45 -49.5 86t-57.5 92h-22v-41 l40 -284q4 -12 25 -18.5t45 -6.5h25q16 4 22 4h109v-158q-39 -16 -66 -16q-16 0 -34.5 8t-26.5 8q-57 0 -99 -28v-559l-4 -371q-31 -2 -84 -4t-67 -2q-41 0 -66.5 2t-34.5 10v934h-178z" />
<glyph unicode="&#xfb02;" horiz-adv-x="1359" d="M787 1483v30l313 168h41v-1269q0 -143 72.5 -201.5t72.5 -85.5q0 -14 -89 -75.5t-107 -61.5q-16 0 -110.5 90t-94.5 117v1044q0 76 -23.5 131.5t-74.5 112.5zM12 940v168h99q80 0 79 29q0 111 -24 186q-29 70 -55 139q0 23 190.5 105t233.5 82q51 0 114.5 -88t63.5 -140 q0 -12 -28 -33.5t-150 -103.5q-27 45 -49.5 86t-57.5 92h-22v-41l40 -284q4 -12 25 -18.5t45 -6.5h25q16 4 22 4h109v-158q-39 -16 -66 -16q-16 0 -34.5 8t-26.5 8q-57 0 -99 -28v-559l-4 -371q-31 -2 -84 -4t-67 -2q-41 0 -66.5 2t-34.5 10v934h-178z" />
<glyph unicode="&#xfb03;" horiz-adv-x="2281" d="M1641 965q57 55 117.5 110t78.5 55q74 -49 146 -115.5t72 -150.5v-366q0 -184 27.5 -260t152.5 -86v-39q-16 -14 -124 -77t-124 -63q-61 49 -123.5 105.5t-62.5 93.5v612q0 74 -80 119.5t-80 61.5zM1756 1393q4 27 4 45q0 70 82.5 114.5t212.5 114.5h30q6 -25 6 -41 q0 -18 -2 -22.5t-4 -6.5v-43q0 -20 2 -36q0 -49 -49 -68q-129 -37 -278 -82q-4 17 -4 25zM815 940v168h99q80 0 79 29q0 111 -24 186q-29 70 -55 139q0 23 190.5 105t233.5 82q51 0 114.5 -88t63.5 -140q0 -12 -28 -33.5t-150 -103.5q-27 45 -49.5 86t-57.5 92h-22v-41 l40 -284q4 -12 25 -18.5t45 -6.5h25q16 4 22 4h109v-158q-39 -16 -66 -16q-16 0 -34.5 8t-26.5 8q-57 0 -99 -28v-559l-4 -371q-31 -2 -84 -4t-67 -2q-41 0 -66.5 2t-34.5 10v934h-178zM12 940v168h99q80 0 79 29q0 111 -24 186q-29 70 -55 139q0 23 190.5 105t233.5 82 q51 0 114.5 -88t63.5 -140q0 -12 -28 -33.5t-150 -103.5q-27 45 -49.5 86t-57.5 92h-22v-41l40 -284q4 -12 25 -18.5t45 -6.5h25q16 4 22 4h109v-158q-39 -16 -66 -16q-16 0 -34.5 8t-26.5 8q-57 0 -99 -28v-559l-4 -371q-31 -2 -84 -4t-67 -2q-41 0 -66.5 2t-34.5 10v934 h-178z" />
<glyph unicode="&#xfb04;" horiz-adv-x="2162" d="M1590 1483v30l313 168h41v-1269q0 -143 72.5 -201.5t72.5 -85.5q0 -14 -89 -75.5t-107 -61.5q-16 0 -110.5 90t-94.5 117v1044q0 76 -23.5 131.5t-74.5 112.5zM815 940v168h99q80 0 79 29q0 111 -24 186q-29 70 -55 139q0 23 190.5 105t233.5 82q51 0 114.5 -88 t63.5 -140q0 -12 -28 -33.5t-150 -103.5q-27 45 -49.5 86t-57.5 92h-22v-41l40 -284q4 -12 25 -18.5t45 -6.5h25q16 4 22 4h109v-158q-39 -16 -66 -16q-16 0 -34.5 8t-26.5 8q-57 0 -99 -28v-559l-4 -371q-31 -2 -84 -4t-67 -2q-41 0 -66.5 2t-34.5 10v934h-178zM12 940v168 h99q80 0 79 29q0 111 -24 186q-29 70 -55 139q0 23 190.5 105t233.5 82q51 0 114.5 -88t63.5 -140q0 -12 -28 -33.5t-150 -103.5q-27 45 -49.5 86t-57.5 92h-22v-41l40 -284q4 -12 25 -18.5t45 -6.5h25q16 4 22 4h109v-158q-39 -16 -66 -16q-16 0 -34.5 8t-26.5 8 q-57 0 -99 -28v-559l-4 -371q-31 -2 -84 -4t-67 -2q-41 0 -66.5 2t-34.5 10v934h-178z" />
</font>
</defs>
</svg>
